<mxfile host="app.diagrams.net" agent="Mozilla/5.0 (Windows NT 10.0; Win64; x64; rv:132.0) Gecko/20100101 Firefox/132.0" version="24.8.4">
  <diagram name="Сторінка-1" id="rTBbg1vXhodDeSrrsVf2">
    <mxGraphModel grid="1" page="1" gridSize="10" guides="1" tooltips="1" connect="1" arrows="1" fold="1" pageScale="1" pageWidth="827" pageHeight="1169" math="0" shadow="0">
      <root>
        <mxCell id="0" />
        <mxCell id="1" parent="0" />
        <mxCell id="ebB3RbUoP0WYFzhV4vVF-2" style="edgeStyle=orthogonalEdgeStyle;rounded=0;orthogonalLoop=1;jettySize=auto;html=1;" edge="1" parent="1" source="ebB3RbUoP0WYFzhV4vVF-1" target="ebB3RbUoP0WYFzhV4vVF-3">
          <mxGeometry relative="1" as="geometry">
            <mxPoint x="440" y="160" as="targetPoint" />
          </mxGeometry>
        </mxCell>
        <mxCell id="ebB3RbUoP0WYFzhV4vVF-1" value="Start" style="ellipse;whiteSpace=wrap;html=1;" vertex="1" parent="1">
          <mxGeometry x="380" y="40" width="120" height="80" as="geometry" />
        </mxCell>
        <mxCell id="ebB3RbUoP0WYFzhV4vVF-4" style="edgeStyle=orthogonalEdgeStyle;rounded=0;orthogonalLoop=1;jettySize=auto;html=1;entryX=0.5;entryY=0;entryDx=0;entryDy=0;" edge="1" parent="1" source="ebB3RbUoP0WYFzhV4vVF-3" target="ebB3RbUoP0WYFzhV4vVF-5">
          <mxGeometry relative="1" as="geometry">
            <mxPoint x="440" y="320" as="targetPoint" />
          </mxGeometry>
        </mxCell>
        <mxCell id="ebB3RbUoP0WYFzhV4vVF-3" value="&lt;div&gt;double a=pi/5&lt;/div&gt;&lt;div&gt;double b=pi&lt;/div&gt;&lt;div&gt;double k=10&lt;/div&gt;&lt;div&gt;double step=(b-a)/k&lt;/div&gt;&lt;div&gt;vector&amp;lt;double&amp;gt; x(k+1)&lt;/div&gt;&lt;div&gt;vector&amp;lt;double&amp;gt; y1&lt;br&gt;&lt;/div&gt;" style="rounded=0;whiteSpace=wrap;html=1;" vertex="1" parent="1">
          <mxGeometry x="370" y="160" width="140" height="90" as="geometry" />
        </mxCell>
        <mxCell id="ebB3RbUoP0WYFzhV4vVF-6" style="edgeStyle=orthogonalEdgeStyle;rounded=0;orthogonalLoop=1;jettySize=auto;html=1;" edge="1" parent="1" source="ebB3RbUoP0WYFzhV4vVF-5">
          <mxGeometry relative="1" as="geometry">
            <mxPoint x="440" y="390" as="targetPoint" />
          </mxGeometry>
        </mxCell>
        <mxCell id="ebB3RbUoP0WYFzhV4vVF-5" value="int i=0" style="rounded=0;whiteSpace=wrap;html=1;" vertex="1" parent="1">
          <mxGeometry x="380" y="280" width="120" height="60" as="geometry" />
        </mxCell>
        <mxCell id="ebB3RbUoP0WYFzhV4vVF-8" style="edgeStyle=orthogonalEdgeStyle;rounded=0;orthogonalLoop=1;jettySize=auto;html=1;" edge="1" parent="1" source="ebB3RbUoP0WYFzhV4vVF-7">
          <mxGeometry relative="1" as="geometry">
            <mxPoint x="440" y="500" as="targetPoint" />
          </mxGeometry>
        </mxCell>
        <mxCell id="ebB3RbUoP0WYFzhV4vVF-7" value="&lt;div&gt;x[i] = a+step*i;&lt;/div&gt;&lt;div&gt;double val1=(pow(pi,2)/8)-(pi/4)*fabs(x[i])&lt;/div&gt;&lt;div&gt;y1.push_back(val1)&lt;br&gt;&lt;/div&gt;" style="rounded=0;whiteSpace=wrap;html=1;" vertex="1" parent="1">
          <mxGeometry x="355" y="390" width="170" height="60" as="geometry" />
        </mxCell>
        <mxCell id="ebB3RbUoP0WYFzhV4vVF-10" style="edgeStyle=orthogonalEdgeStyle;rounded=0;orthogonalLoop=1;jettySize=auto;html=1;" edge="1" parent="1" source="ebB3RbUoP0WYFzhV4vVF-9">
          <mxGeometry relative="1" as="geometry">
            <mxPoint x="440" y="360" as="targetPoint" />
            <Array as="points">
              <mxPoint x="320" y="540" />
              <mxPoint x="320" y="360" />
            </Array>
          </mxGeometry>
        </mxCell>
        <mxCell id="ebB3RbUoP0WYFzhV4vVF-11" value="Yes" style="edgeLabel;html=1;align=center;verticalAlign=middle;resizable=0;points=[];" connectable="0" vertex="1" parent="ebB3RbUoP0WYFzhV4vVF-10">
          <mxGeometry x="-0.8405" relative="1" as="geometry">
            <mxPoint as="offset" />
          </mxGeometry>
        </mxCell>
        <mxCell id="ebB3RbUoP0WYFzhV4vVF-12" value="i++" style="edgeLabel;html=1;align=center;verticalAlign=middle;resizable=0;points=[];" connectable="0" vertex="1" parent="ebB3RbUoP0WYFzhV4vVF-10">
          <mxGeometry x="-0.154" relative="1" as="geometry">
            <mxPoint as="offset" />
          </mxGeometry>
        </mxCell>
        <mxCell id="ebB3RbUoP0WYFzhV4vVF-13" style="edgeStyle=orthogonalEdgeStyle;rounded=0;orthogonalLoop=1;jettySize=auto;html=1;" edge="1" parent="1" source="ebB3RbUoP0WYFzhV4vVF-9">
          <mxGeometry relative="1" as="geometry">
            <mxPoint x="440" y="640" as="targetPoint" />
          </mxGeometry>
        </mxCell>
        <mxCell id="ebB3RbUoP0WYFzhV4vVF-14" value="No" style="edgeLabel;html=1;align=center;verticalAlign=middle;resizable=0;points=[];" connectable="0" vertex="1" parent="ebB3RbUoP0WYFzhV4vVF-13">
          <mxGeometry x="-0.2341" relative="1" as="geometry">
            <mxPoint as="offset" />
          </mxGeometry>
        </mxCell>
        <mxCell id="ebB3RbUoP0WYFzhV4vVF-9" value="i&amp;lt;=k?" style="rhombus;whiteSpace=wrap;html=1;" vertex="1" parent="1">
          <mxGeometry x="380" y="500" width="120" height="80" as="geometry" />
        </mxCell>
        <mxCell id="ebB3RbUoP0WYFzhV4vVF-15" value="&lt;div&gt;vector&amp;lt;double&amp;gt; y2&lt;/div&gt;&lt;div&gt;double sum&lt;br&gt;&lt;/div&gt;" style="rounded=0;whiteSpace=wrap;html=1;" vertex="1" parent="1">
          <mxGeometry x="380" y="640" width="120" height="60" as="geometry" />
        </mxCell>
        <mxCell id="ebB3RbUoP0WYFzhV4vVF-29" value="" style="endArrow=none;html=1;rounded=0;" edge="1" parent="1">
          <mxGeometry width="50" height="50" relative="1" as="geometry">
            <mxPoint x="440" y="750" as="sourcePoint" />
            <mxPoint x="440" y="700" as="targetPoint" />
          </mxGeometry>
        </mxCell>
        <mxCell id="ebB3RbUoP0WYFzhV4vVF-31" value="1" style="ellipse;whiteSpace=wrap;html=1;aspect=fixed;" vertex="1" parent="1">
          <mxGeometry x="430" y="750" width="20" height="20" as="geometry" />
        </mxCell>
        <mxCell id="ebB3RbUoP0WYFzhV4vVF-33" style="edgeStyle=orthogonalEdgeStyle;rounded=0;orthogonalLoop=1;jettySize=auto;html=1;" edge="1" parent="1" source="ebB3RbUoP0WYFzhV4vVF-32">
          <mxGeometry relative="1" as="geometry">
            <mxPoint x="760" y="150" as="targetPoint" />
          </mxGeometry>
        </mxCell>
        <mxCell id="ebB3RbUoP0WYFzhV4vVF-32" value="1" style="ellipse;whiteSpace=wrap;html=1;aspect=fixed;" vertex="1" parent="1">
          <mxGeometry x="750" y="70" width="20" height="20" as="geometry" />
        </mxCell>
        <mxCell id="ebB3RbUoP0WYFzhV4vVF-34" style="edgeStyle=orthogonalEdgeStyle;rounded=0;orthogonalLoop=1;jettySize=auto;html=1;" edge="1" parent="1" source="ebB3RbUoP0WYFzhV4vVF-35">
          <mxGeometry relative="1" as="geometry">
            <mxPoint x="759.9500000000003" y="260" as="targetPoint" />
          </mxGeometry>
        </mxCell>
        <mxCell id="ebB3RbUoP0WYFzhV4vVF-35" value="int i=0" style="rounded=0;whiteSpace=wrap;html=1;" vertex="1" parent="1">
          <mxGeometry x="699.95" y="150" width="120" height="60" as="geometry" />
        </mxCell>
        <mxCell id="ebB3RbUoP0WYFzhV4vVF-36" style="edgeStyle=orthogonalEdgeStyle;rounded=0;orthogonalLoop=1;jettySize=auto;html=1;" edge="1" parent="1" source="ebB3RbUoP0WYFzhV4vVF-37">
          <mxGeometry relative="1" as="geometry">
            <mxPoint x="759.9500000000003" y="359.9999999999998" as="targetPoint" />
          </mxGeometry>
        </mxCell>
        <mxCell id="ebB3RbUoP0WYFzhV4vVF-37" value="sum=0" style="rounded=0;whiteSpace=wrap;html=1;" vertex="1" parent="1">
          <mxGeometry x="699.95" y="260" width="120" height="60" as="geometry" />
        </mxCell>
        <mxCell id="ebB3RbUoP0WYFzhV4vVF-38" style="edgeStyle=orthogonalEdgeStyle;rounded=0;orthogonalLoop=1;jettySize=auto;html=1;entryX=0.5;entryY=0;entryDx=0;entryDy=0;" edge="1" parent="1" source="ebB3RbUoP0WYFzhV4vVF-39" target="ebB3RbUoP0WYFzhV4vVF-41">
          <mxGeometry relative="1" as="geometry" />
        </mxCell>
        <mxCell id="ebB3RbUoP0WYFzhV4vVF-39" value="int j=1" style="rounded=0;whiteSpace=wrap;html=1;" vertex="1" parent="1">
          <mxGeometry x="699.95" y="360" width="120" height="60" as="geometry" />
        </mxCell>
        <mxCell id="ebB3RbUoP0WYFzhV4vVF-40" style="edgeStyle=orthogonalEdgeStyle;rounded=0;orthogonalLoop=1;jettySize=auto;html=1;" edge="1" parent="1" source="ebB3RbUoP0WYFzhV4vVF-41">
          <mxGeometry relative="1" as="geometry">
            <mxPoint x="759.9500000000003" y="569.9999999999998" as="targetPoint" />
          </mxGeometry>
        </mxCell>
        <mxCell id="ebB3RbUoP0WYFzhV4vVF-41" value="&lt;div&gt;double val2=cos((2*j-1)*x[i])/pow(2*j-1,2)&lt;/div&gt;&lt;div&gt;sum+=val2&lt;br&gt;&lt;/div&gt;" style="rounded=0;whiteSpace=wrap;html=1;" vertex="1" parent="1">
          <mxGeometry x="569.95" y="460" width="380" height="60" as="geometry" />
        </mxCell>
        <mxCell id="ebB3RbUoP0WYFzhV4vVF-42" style="edgeStyle=orthogonalEdgeStyle;rounded=0;orthogonalLoop=1;jettySize=auto;html=1;" edge="1" parent="1" source="ebB3RbUoP0WYFzhV4vVF-45">
          <mxGeometry relative="1" as="geometry">
            <mxPoint x="759.95" y="440" as="targetPoint" />
            <Array as="points">
              <mxPoint x="539.95" y="610" />
              <mxPoint x="539.95" y="440" />
            </Array>
          </mxGeometry>
        </mxCell>
        <mxCell id="ebB3RbUoP0WYFzhV4vVF-43" value="Yes" style="edgeLabel;html=1;align=center;verticalAlign=middle;resizable=0;points=[];" connectable="0" vertex="1" parent="ebB3RbUoP0WYFzhV4vVF-42">
          <mxGeometry x="-0.8845" relative="1" as="geometry">
            <mxPoint as="offset" />
          </mxGeometry>
        </mxCell>
        <mxCell id="ebB3RbUoP0WYFzhV4vVF-44" value="j++" style="edgeLabel;html=1;align=center;verticalAlign=middle;resizable=0;points=[];" connectable="0" vertex="1" parent="ebB3RbUoP0WYFzhV4vVF-42">
          <mxGeometry x="-0.1015" relative="1" as="geometry">
            <mxPoint as="offset" />
          </mxGeometry>
        </mxCell>
        <mxCell id="ebB3RbUoP0WYFzhV4vVF-46" style="edgeStyle=orthogonalEdgeStyle;rounded=0;orthogonalLoop=1;jettySize=auto;html=1;" edge="1" parent="1" source="ebB3RbUoP0WYFzhV4vVF-45">
          <mxGeometry relative="1" as="geometry">
            <mxPoint x="759.95" y="710" as="targetPoint" />
          </mxGeometry>
        </mxCell>
        <mxCell id="ebB3RbUoP0WYFzhV4vVF-47" value="No" style="edgeLabel;html=1;align=center;verticalAlign=middle;resizable=0;points=[];" connectable="0" vertex="1" parent="ebB3RbUoP0WYFzhV4vVF-46">
          <mxGeometry x="-0.1734" relative="1" as="geometry">
            <mxPoint as="offset" />
          </mxGeometry>
        </mxCell>
        <mxCell id="ebB3RbUoP0WYFzhV4vVF-45" value="j&amp;lt;=40?" style="rhombus;whiteSpace=wrap;html=1;" vertex="1" parent="1">
          <mxGeometry x="699.95" y="570" width="120" height="80" as="geometry" />
        </mxCell>
        <mxCell id="ebB3RbUoP0WYFzhV4vVF-52" style="edgeStyle=orthogonalEdgeStyle;rounded=0;orthogonalLoop=1;jettySize=auto;html=1;" edge="1" parent="1" source="ebB3RbUoP0WYFzhV4vVF-49">
          <mxGeometry relative="1" as="geometry">
            <mxPoint x="760" y="230" as="targetPoint" />
            <Array as="points">
              <mxPoint x="1031" y="850" />
              <mxPoint x="1031" y="230" />
            </Array>
          </mxGeometry>
        </mxCell>
        <mxCell id="ebB3RbUoP0WYFzhV4vVF-53" value="Yes" style="edgeLabel;html=1;align=center;verticalAlign=middle;resizable=0;points=[];" connectable="0" vertex="1" parent="ebB3RbUoP0WYFzhV4vVF-52">
          <mxGeometry x="-0.8511" relative="1" as="geometry">
            <mxPoint as="offset" />
          </mxGeometry>
        </mxCell>
        <mxCell id="ebB3RbUoP0WYFzhV4vVF-54" value="i++" style="edgeLabel;html=1;align=center;verticalAlign=middle;resizable=0;points=[];" connectable="0" vertex="1" parent="ebB3RbUoP0WYFzhV4vVF-52">
          <mxGeometry x="-0.0623" y="1" relative="1" as="geometry">
            <mxPoint as="offset" />
          </mxGeometry>
        </mxCell>
        <mxCell id="ebB3RbUoP0WYFzhV4vVF-49" value="i&amp;lt;=k?" style="rhombus;whiteSpace=wrap;html=1;" vertex="1" parent="1">
          <mxGeometry x="699.95" y="810" width="120" height="80" as="geometry" />
        </mxCell>
        <mxCell id="ebB3RbUoP0WYFzhV4vVF-51" style="edgeStyle=orthogonalEdgeStyle;rounded=0;orthogonalLoop=1;jettySize=auto;html=1;entryX=0.5;entryY=0;entryDx=0;entryDy=0;" edge="1" parent="1" source="ebB3RbUoP0WYFzhV4vVF-50" target="ebB3RbUoP0WYFzhV4vVF-49">
          <mxGeometry relative="1" as="geometry" />
        </mxCell>
        <mxCell id="ebB3RbUoP0WYFzhV4vVF-50" value="y2.push_back(sum)" style="rounded=0;whiteSpace=wrap;html=1;" vertex="1" parent="1">
          <mxGeometry x="699.95" y="710" width="120" height="60" as="geometry" />
        </mxCell>
        <mxCell id="ebB3RbUoP0WYFzhV4vVF-55" value="" style="endArrow=none;html=1;rounded=0;" edge="1" parent="1">
          <mxGeometry width="50" height="50" relative="1" as="geometry">
            <mxPoint x="760" y="950" as="sourcePoint" />
            <mxPoint x="760" y="890" as="targetPoint" />
          </mxGeometry>
        </mxCell>
        <mxCell id="ebB3RbUoP0WYFzhV4vVF-56" value="No" style="edgeLabel;html=1;align=center;verticalAlign=middle;resizable=0;points=[];" connectable="0" vertex="1" parent="ebB3RbUoP0WYFzhV4vVF-55">
          <mxGeometry x="0.1218" relative="1" as="geometry">
            <mxPoint as="offset" />
          </mxGeometry>
        </mxCell>
        <mxCell id="ebB3RbUoP0WYFzhV4vVF-57" value="2" style="ellipse;whiteSpace=wrap;html=1;aspect=fixed;" vertex="1" parent="1">
          <mxGeometry x="750" y="950" width="20" height="20" as="geometry" />
        </mxCell>
        <mxCell id="ebB3RbUoP0WYFzhV4vVF-59" style="edgeStyle=orthogonalEdgeStyle;rounded=0;orthogonalLoop=1;jettySize=auto;html=1;" edge="1" parent="1" source="ebB3RbUoP0WYFzhV4vVF-58" target="ebB3RbUoP0WYFzhV4vVF-60">
          <mxGeometry relative="1" as="geometry">
            <mxPoint x="1280" y="140" as="targetPoint" />
          </mxGeometry>
        </mxCell>
        <mxCell id="ebB3RbUoP0WYFzhV4vVF-58" value="2" style="ellipse;whiteSpace=wrap;html=1;aspect=fixed;" vertex="1" parent="1">
          <mxGeometry x="1270" y="70" width="20" height="20" as="geometry" />
        </mxCell>
        <mxCell id="ebB3RbUoP0WYFzhV4vVF-61" style="edgeStyle=orthogonalEdgeStyle;rounded=0;orthogonalLoop=1;jettySize=auto;html=1;entryX=0.5;entryY=0;entryDx=0;entryDy=0;" edge="1" parent="1" source="ebB3RbUoP0WYFzhV4vVF-60" target="ebB3RbUoP0WYFzhV4vVF-62">
          <mxGeometry relative="1" as="geometry">
            <mxPoint x="1280" y="250" as="targetPoint" />
          </mxGeometry>
        </mxCell>
        <mxCell id="ebB3RbUoP0WYFzhV4vVF-60" value="&lt;div&gt;vector&amp;lt;double&amp;gt; y3&lt;/div&gt;&lt;div&gt;int i=0&lt;br&gt;&lt;/div&gt;" style="rounded=0;whiteSpace=wrap;html=1;" vertex="1" parent="1">
          <mxGeometry x="1220" y="150" width="120" height="60" as="geometry" />
        </mxCell>
        <mxCell id="ebB3RbUoP0WYFzhV4vVF-63" style="edgeStyle=orthogonalEdgeStyle;rounded=0;orthogonalLoop=1;jettySize=auto;html=1;" edge="1" parent="1" source="ebB3RbUoP0WYFzhV4vVF-62">
          <mxGeometry relative="1" as="geometry">
            <mxPoint x="1280" y="360" as="targetPoint" />
          </mxGeometry>
        </mxCell>
        <mxCell id="ebB3RbUoP0WYFzhV4vVF-62" value="&lt;div&gt;sum=0&lt;/div&gt;&lt;div&gt;double val3=1&lt;/div&gt;&lt;div&gt;int n=1&lt;br&gt;&lt;/div&gt;" style="rounded=0;whiteSpace=wrap;html=1;" vertex="1" parent="1">
          <mxGeometry x="1220" y="260" width="120" height="60" as="geometry" />
        </mxCell>
        <mxCell id="ebB3RbUoP0WYFzhV4vVF-65" style="edgeStyle=orthogonalEdgeStyle;rounded=0;orthogonalLoop=1;jettySize=auto;html=1;" edge="1" parent="1" source="ebB3RbUoP0WYFzhV4vVF-64">
          <mxGeometry relative="1" as="geometry">
            <mxPoint x="1280" y="460" as="targetPoint" />
          </mxGeometry>
        </mxCell>
        <mxCell id="ebB3RbUoP0WYFzhV4vVF-64" value="&lt;div&gt;val3=cos((2*n-1)*x[i])/pow(2*n-1,2)&lt;/div&gt;&lt;div&gt;sum+=val3&lt;/div&gt;&lt;div&gt;n++&lt;br&gt;&lt;/div&gt;" style="rounded=0;whiteSpace=wrap;html=1;" vertex="1" parent="1">
          <mxGeometry x="1185" y="360" width="190" height="60" as="geometry" />
        </mxCell>
        <mxCell id="ebB3RbUoP0WYFzhV4vVF-67" style="edgeStyle=orthogonalEdgeStyle;rounded=0;orthogonalLoop=1;jettySize=auto;html=1;" edge="1" parent="1" source="ebB3RbUoP0WYFzhV4vVF-66">
          <mxGeometry relative="1" as="geometry">
            <mxPoint x="1280" y="340" as="targetPoint" />
            <Array as="points">
              <mxPoint x="1121" y="500" />
              <mxPoint x="1121" y="340" />
              <mxPoint x="1280" y="340" />
            </Array>
          </mxGeometry>
        </mxCell>
        <mxCell id="ebB3RbUoP0WYFzhV4vVF-68" value="Yes" style="edgeLabel;html=1;align=center;verticalAlign=middle;resizable=0;points=[];" connectable="0" vertex="1" parent="ebB3RbUoP0WYFzhV4vVF-67">
          <mxGeometry x="-0.7864" relative="1" as="geometry">
            <mxPoint as="offset" />
          </mxGeometry>
        </mxCell>
        <mxCell id="ebB3RbUoP0WYFzhV4vVF-69" style="edgeStyle=orthogonalEdgeStyle;rounded=0;orthogonalLoop=1;jettySize=auto;html=1;" edge="1" parent="1" source="ebB3RbUoP0WYFzhV4vVF-66">
          <mxGeometry relative="1" as="geometry">
            <mxPoint x="1280" y="590" as="targetPoint" />
          </mxGeometry>
        </mxCell>
        <mxCell id="ebB3RbUoP0WYFzhV4vVF-72" value="No" style="edgeLabel;html=1;align=center;verticalAlign=middle;resizable=0;points=[];" connectable="0" vertex="1" parent="ebB3RbUoP0WYFzhV4vVF-69">
          <mxGeometry x="-0.2217" relative="1" as="geometry">
            <mxPoint as="offset" />
          </mxGeometry>
        </mxCell>
        <mxCell id="ebB3RbUoP0WYFzhV4vVF-66" value="val3&amp;gt;0.0001?" style="rhombus;whiteSpace=wrap;html=1;" vertex="1" parent="1">
          <mxGeometry x="1212.5" y="460" width="135" height="80" as="geometry" />
        </mxCell>
        <mxCell id="ebB3RbUoP0WYFzhV4vVF-74" style="edgeStyle=orthogonalEdgeStyle;rounded=0;orthogonalLoop=1;jettySize=auto;html=1;" edge="1" parent="1" source="ebB3RbUoP0WYFzhV4vVF-73">
          <mxGeometry relative="1" as="geometry">
            <mxPoint x="1280" y="690" as="targetPoint" />
          </mxGeometry>
        </mxCell>
        <mxCell id="ebB3RbUoP0WYFzhV4vVF-73" value="y3.push_back(sum)" style="rounded=0;whiteSpace=wrap;html=1;" vertex="1" parent="1">
          <mxGeometry x="1220" y="590" width="120" height="60" as="geometry" />
        </mxCell>
        <mxCell id="ebB3RbUoP0WYFzhV4vVF-76" style="edgeStyle=orthogonalEdgeStyle;rounded=0;orthogonalLoop=1;jettySize=auto;html=1;" edge="1" parent="1" source="ebB3RbUoP0WYFzhV4vVF-75">
          <mxGeometry relative="1" as="geometry">
            <mxPoint x="1280" y="230" as="targetPoint" />
            <Array as="points">
              <mxPoint x="1481" y="730" />
              <mxPoint x="1481" y="230" />
            </Array>
          </mxGeometry>
        </mxCell>
        <mxCell id="ebB3RbUoP0WYFzhV4vVF-77" value="Yes" style="edgeLabel;html=1;align=center;verticalAlign=middle;resizable=0;points=[];" connectable="0" vertex="1" parent="ebB3RbUoP0WYFzhV4vVF-76">
          <mxGeometry x="-0.8515" y="-1" relative="1" as="geometry">
            <mxPoint as="offset" />
          </mxGeometry>
        </mxCell>
        <mxCell id="ebB3RbUoP0WYFzhV4vVF-78" value="i++" style="edgeLabel;html=1;align=center;verticalAlign=middle;resizable=0;points=[];" connectable="0" vertex="1" parent="ebB3RbUoP0WYFzhV4vVF-76">
          <mxGeometry x="0.0281" relative="1" as="geometry">
            <mxPoint as="offset" />
          </mxGeometry>
        </mxCell>
        <mxCell id="ebB3RbUoP0WYFzhV4vVF-79" style="edgeStyle=orthogonalEdgeStyle;rounded=0;orthogonalLoop=1;jettySize=auto;html=1;" edge="1" parent="1" source="ebB3RbUoP0WYFzhV4vVF-75">
          <mxGeometry relative="1" as="geometry">
            <mxPoint x="1279.5" y="820" as="targetPoint" />
          </mxGeometry>
        </mxCell>
        <mxCell id="ebB3RbUoP0WYFzhV4vVF-75" value="i&amp;lt;=k?" style="rhombus;whiteSpace=wrap;html=1;" vertex="1" parent="1">
          <mxGeometry x="1219" y="690" width="121" height="80" as="geometry" />
        </mxCell>
        <mxCell id="ebB3RbUoP0WYFzhV4vVF-81" style="edgeStyle=orthogonalEdgeStyle;rounded=0;orthogonalLoop=1;jettySize=auto;html=1;" edge="1" parent="1" source="ebB3RbUoP0WYFzhV4vVF-80" target="ebB3RbUoP0WYFzhV4vVF-82">
          <mxGeometry relative="1" as="geometry">
            <mxPoint x="1279" y="920" as="targetPoint" />
          </mxGeometry>
        </mxCell>
        <mxCell id="ebB3RbUoP0WYFzhV4vVF-80" value="int i=0" style="rounded=0;whiteSpace=wrap;html=1;" vertex="1" parent="1">
          <mxGeometry x="1219" y="820" width="120" height="60" as="geometry" />
        </mxCell>
        <mxCell id="ebB3RbUoP0WYFzhV4vVF-83" style="edgeStyle=orthogonalEdgeStyle;rounded=0;orthogonalLoop=1;jettySize=auto;html=1;" edge="1" parent="1" source="ebB3RbUoP0WYFzhV4vVF-82" target="ebB3RbUoP0WYFzhV4vVF-84">
          <mxGeometry relative="1" as="geometry">
            <mxPoint x="1279" y="1020" as="targetPoint" />
          </mxGeometry>
        </mxCell>
        <mxCell id="ebB3RbUoP0WYFzhV4vVF-82" value="Output x[i] &quot; &quot; y1[i] &quot; &quot; y2[i] &quot; &quot; y3[i] endl" style="shape=parallelogram;perimeter=parallelogramPerimeter;whiteSpace=wrap;html=1;fixedSize=1;" vertex="1" parent="1">
          <mxGeometry x="1169" y="920" width="220" height="60" as="geometry" />
        </mxCell>
        <mxCell id="ebB3RbUoP0WYFzhV4vVF-85" style="edgeStyle=orthogonalEdgeStyle;rounded=0;orthogonalLoop=1;jettySize=auto;html=1;" edge="1" parent="1" source="ebB3RbUoP0WYFzhV4vVF-84">
          <mxGeometry relative="1" as="geometry">
            <mxPoint x="1279" y="890" as="targetPoint" />
            <Array as="points">
              <mxPoint x="1121" y="1060" />
              <mxPoint x="1121" y="890" />
            </Array>
          </mxGeometry>
        </mxCell>
        <mxCell id="ebB3RbUoP0WYFzhV4vVF-86" value="Yes" style="edgeLabel;html=1;align=center;verticalAlign=middle;resizable=0;points=[];" connectable="0" vertex="1" parent="ebB3RbUoP0WYFzhV4vVF-85">
          <mxGeometry x="-0.7488" relative="1" as="geometry">
            <mxPoint as="offset" />
          </mxGeometry>
        </mxCell>
        <mxCell id="ebB3RbUoP0WYFzhV4vVF-87" value="i++" style="edgeLabel;html=1;align=center;verticalAlign=middle;resizable=0;points=[];" connectable="0" vertex="1" parent="ebB3RbUoP0WYFzhV4vVF-85">
          <mxGeometry x="-0.1166" relative="1" as="geometry">
            <mxPoint as="offset" />
          </mxGeometry>
        </mxCell>
        <mxCell id="ebB3RbUoP0WYFzhV4vVF-88" style="edgeStyle=orthogonalEdgeStyle;rounded=0;orthogonalLoop=1;jettySize=auto;html=1;" edge="1" parent="1" source="ebB3RbUoP0WYFzhV4vVF-84">
          <mxGeometry relative="1" as="geometry">
            <mxPoint x="1410" y="1059.9999999999998" as="targetPoint" />
          </mxGeometry>
        </mxCell>
        <mxCell id="ebB3RbUoP0WYFzhV4vVF-89" value="No" style="edgeLabel;html=1;align=center;verticalAlign=middle;resizable=0;points=[];" connectable="0" vertex="1" parent="ebB3RbUoP0WYFzhV4vVF-88">
          <mxGeometry x="-0.205" relative="1" as="geometry">
            <mxPoint as="offset" />
          </mxGeometry>
        </mxCell>
        <mxCell id="ebB3RbUoP0WYFzhV4vVF-84" value="i&amp;lt;=k?" style="rhombus;whiteSpace=wrap;html=1;" vertex="1" parent="1">
          <mxGeometry x="1224.5" y="1020" width="109" height="80" as="geometry" />
        </mxCell>
        <mxCell id="ebB3RbUoP0WYFzhV4vVF-91" value="End" style="ellipse;whiteSpace=wrap;html=1;" vertex="1" parent="1">
          <mxGeometry x="1410" y="1020" width="120" height="80" as="geometry" />
        </mxCell>
      </root>
    </mxGraphModel>
  </diagram>
</mxfile>
